<?xml version="1.0" standalone="no"?>
<!DOCTYPE svg PUBLIC "-//W3C//DTD SVG 20010904//EN"
 "http://www.w3.org/TR/2001/REC-SVG-20010904/DTD/svg10.dtd">
<svg version="1.0" xmlns="http://www.w3.org/2000/svg"
 width="500.000000pt" height="500.000000pt" viewBox="0 0 500.000000 500.000000"
 preserveAspectRatio="xMidYMid meet">
<metadata>
Created by potrace 1.16, written by Peter Selinger 2001-2019
</metadata>
<g transform="translate(0.000000,500.000000) scale(0.100000,-0.100000)"
fill="#000000" stroke="none">
<path d="M0 2500 l0 -2500 2500 0 2500 0 0 2500 0 2500 -2500 0 -2500 0 0
-2500z m2708 1067 c102 -36 174 -81 251 -158 75 -74 132 -164 163 -259 19 -56
22 -93 26 -262 2 -140 0 -198 -8 -198 -6 0 -37 14 -70 30 l-60 30 0 144 c0
166 -18 240 -85 340 -154 233 -476 296 -712 140 -131 -88 -222 -250 -223 -397
l0 -48 83 -38 c135 -62 123 -66 129 39 4 70 11 102 32 144 52 105 152 169 266
169 80 0 140 -25 203 -82 75 -70 90 -118 95 -308 2 -90 1 -163 -2 -163 -4 0
-36 13 -71 29 l-65 30 0 103 c0 57 -5 120 -10 140 -13 45 -78 104 -122 110
-76 12 -159 -40 -178 -112 -14 -51 -7 -979 7 -1005 49 -87 150 -115 230 -62
52 35 67 71 71 175 l4 93 -100 46 c-112 52 -116 58 -103 156 l6 47 37 -20 c21
-11 42 -20 48 -20 5 0 39 -18 75 -40 36 -22 72 -40 81 -40 8 0 33 -9 55 -21
l41 -20 -4 -147 c-3 -125 -7 -155 -27 -198 -83 -189 -330 -237 -478 -92 -53
52 -83 121 -89 206 -3 37 -6 195 -7 351 l-2 284 -170 77 -170 76 -3 103 c-2
80 2 120 18 179 64 231 245 408 479 467 91 23 269 14 359 -18z m-185 -879 c29
-12 106 -47 172 -79 66 -31 130 -60 142 -63 12 -4 87 -38 167 -76 139 -66 144
-70 147 -102 2 -18 1 -127 -2 -243 -4 -178 -9 -220 -27 -275 -31 -95 -88 -186
-162 -260 -76 -75 -148 -120 -252 -158 -66 -24 -87 -27 -208 -27 -121 0 -142
3 -208 27 -103 37 -175 83 -251 159 -76 75 -132 165 -163 259 -18 55 -22 102
-28 316 -5 139 -5 283 -2 322 l7 70 68 -45 67 -44 0 -247 c0 -136 5 -267 11
-292 29 -129 146 -277 261 -332 212 -103 444 -66 603 96 65 66 118 161 135
242 6 27 9 123 8 213 l-3 165 -110 49 c-60 28 -152 70 -203 94 -51 23 -96 43
-100 43 -4 0 -35 14 -69 32 l-63 32 0 73 c0 40 3 73 6 73 3 0 29 -10 57 -22z
m1766 -2550 c7 11 9 11 14 -2 3 -8 1 -18 -5 -22 -7 -4 -6 -9 3 -15 10 -6 11
-9 2 -9 -7 0 -13 -8 -14 -17 0 -16 -1 -15 -8 2 -7 18 -8 18 -18 1 -9 -17 -10
-17 -16 3 -3 11 -1 21 4 21 6 0 9 6 8 13 -1 6 -1 19 0 27 1 13 2 13 11 0 8
-12 12 -13 19 -2z m76 -33 c0 -34 -3 -40 -22 -43 -13 -2 -23 2 -23 8 0 6 5 8
10 5 6 -3 15 -3 22 1 7 5 5 11 -7 21 -11 7 -13 13 -7 13 7 0 12 7 12 15 0 9
-6 12 -15 9 -8 -4 -15 -1 -15 6 0 6 10 10 23 8 19 -3 22 -9 22 -43z m76 21 c8
-17 8 -29 -1 -45 -23 -44 -67 -2 -49 47 11 29 37 28 50 -2z m69 14 c0 -5 -8
-11 -17 -11 -16 -1 -16 -2 -1 -6 23 -6 31 -34 14 -51 -23 -23 -46 -7 -46 31 0
19 3 37 7 40 10 11 43 8 43 -3z m70 -1 c0 -5 -4 -8 -9 -4 -5 3 -12 1 -16 -5
-3 -5 0 -10 8 -10 22 0 30 -31 13 -48 -23 -23 -46 -7 -46 31 0 19 3 37 7 40
10 11 43 8 43 -4z m71 -13 c14 -29 -4 -69 -29 -64 -17 3 -28 47 -18 74 8 22
35 16 47 -10z m57 17 c-23 -6 -23 -11 4 -33 19 -15 20 -20 9 -34 -15 -18 -51
-22 -51 -5 0 5 4 8 8 5 4 -2 14 -1 21 4 17 10 4 33 -15 26 -10 -4 -14 2 -14
19 0 21 5 25 28 24 16 -1 20 -3 10 -6z m82 -12 c14 -28 -4 -71 -30 -71 -11 0
-20 4 -20 9 0 5 7 8 16 7 9 0 19 5 21 12 3 7 -4 12 -16 12 -14 0 -21 6 -21 18
0 36 33 44 50 13z m65 -26 c0 -34 -3 -40 -22 -43 -13 -2 -23 2 -23 8 0 6 5 8
10 5 6 -3 15 -3 22 1 7 5 5 11 -7 21 -11 7 -13 13 -7 13 7 0 12 7 12 15 0 9
-6 12 -15 9 -8 -4 -15 -1 -15 6 0 6 10 10 23 8 19 -3 22 -9 22 -43z m70 15
c-8 -16 -15 -36 -15 -45 0 -8 -5 -15 -11 -15 -6 0 -8 9 -4 23 4 12 9 30 11 39
3 10 -2 18 -13 21 -10 3 -3 5 15 6 l33 1 -16 -30z"/>
<path d="M4404 127 c-7 -20 -2 -47 11 -50 14 -3 19 43 6 56 -7 7 -12 6 -17 -6z"/>
<path d="M4475 100 c-4 -6 -3 -16 3 -22 6 -6 12 -6 17 2 4 6 3 16 -3 22 -6 6
-12 6 -17 -2z"/>
<path d="M4547 103 c-3 -5 -2 -15 2 -22 7 -10 10 -10 16 -1 4 6 3 16 -3 22 -5
5 -12 6 -15 1z"/>
<path d="M4614 127 c-7 -20 -2 -47 11 -50 14 -3 19 43 6 56 -7 7 -12 6 -17 -6z"/>
<path d="M4756 133 c-11 -11 -6 -23 9 -23 8 0 15 4 15 9 0 13 -16 22 -24 14z"/>
</g>
</svg>
